<svg id="academy-logo" xmlns="http://www.w3.org/2000/svg" width="113.19" height="27.137" viewBox="0 0 113.19 27.137">
  <g id="Group_52" data-name="Group 52" transform="translate(45.147 13.333)">
    <path id="Path_94" data-name="Path 94" d="M397.57,136.8a2.473,2.473,0,0,1,2.26,1.17V136.9h2.685v7.688h-2.685v-1.067a2.5,2.5,0,0,1-2.26,1.17c-1.824,0-3.27-1.492-3.27-3.947S395.746,136.8,397.57,136.8Zm.861,2.341a1.415,1.415,0,0,0-1.4,1.595,1.412,1.412,0,1,0,1.4-1.595Z" transform="translate(-394.3 -134.436)" fill="#fff"/>
    <path id="Path_95" data-name="Path 95" d="M479.389,136.8a3.592,3.592,0,0,1,3.752,3.041H480.3a.951.951,0,0,0-.964-.757c-.654,0-1.1.551-1.1,1.641,0,1.113.436,1.652,1.1,1.652a.957.957,0,0,0,.964-.757h2.846a3.619,3.619,0,0,1-3.752,3.041,3.93,3.93,0,0,1,0-7.86Z" transform="translate(-466.182 -134.436)" fill="#fff"/>
    <path id="Path_96" data-name="Path 96" d="M551.27,136.8a2.473,2.473,0,0,1,2.26,1.17V136.9h2.685v7.688h-2.685v-1.067a2.5,2.5,0,0,1-2.26,1.17c-1.825,0-3.27-1.492-3.27-3.947S549.446,136.8,551.27,136.8Zm.861,2.341a1.415,1.415,0,0,0-1.4,1.595,1.412,1.412,0,1,0,1.4-1.595Z" transform="translate(-530.364 -134.436)" fill="#fff"/>
    <path id="Path_97" data-name="Path 97" d="M632.482,118.564a2.528,2.528,0,0,1,2.238,1.147V116.2h2.7v10.143h-2.7v-1.067a2.48,2.48,0,0,1-2.249,1.17c-1.825,0-3.27-1.492-3.27-3.947S630.646,118.564,632.482,118.564Zm.849,2.341a1.415,1.415,0,0,0-1.4,1.595,1.412,1.412,0,1,0,1.4-1.595Z" transform="translate(-602.247 -116.2)" fill="#fff"/>
    <path id="Path_98" data-name="Path 98" d="M714.3,144.583a3.942,3.942,0,0,1,0-7.883,3.643,3.643,0,0,1,3.878,3.855,3.88,3.88,0,0,1-.046.631h-5.083c.057.9.539,1.251,1.136,1.251a1.019,1.019,0,0,0,.964-.608h2.868A3.657,3.657,0,0,1,714.3,144.583Zm-1.239-4.693h2.375a1.054,1.054,0,0,0-1.147-1.056A1.162,1.162,0,0,0,713.062,139.89Z" transform="translate(-674.129 -134.348)" fill="#fff"/>
    <path id="Path_99" data-name="Path 99" d="M798.265,140.637a1.274,1.274,0,1,0-2.547,0v4.119h-2.685v-4.119a1.274,1.274,0,1,0-2.547,0v4.119H787.8v-7.688h2.685v1.01A2.64,2.64,0,0,1,792.723,137a2.8,2.8,0,0,1,2.559,1.411A3.077,3.077,0,0,1,797.84,137a2.951,2.951,0,0,1,3.11,3.27v4.475h-2.685v-4.108Z" transform="translate(-742.648 -134.613)" fill="#fff"/>
    <path id="Path_100" data-name="Path 100" d="M914.062,137.6h2.949l-4.877,11.348h-2.915l1.836-3.993L907.9,137.6h2.983l1.618,4.36Z" transform="translate(-848.967 -135.144)" fill="#fff"/>
  </g>
  <g id="Group_53" data-name="Group 53" transform="translate(45.598 2.949)">
    <path id="Path_101" data-name="Path 101" d="M401.044,35.017c-1.824,0-3.121-1.021-3.144-2.524h1.262a1.691,1.691,0,0,0,1.882,1.515c1.147,0,1.824-.654,1.824-1.515,0-2.456-4.923-.884-4.923-4.269,0-1.5,1.216-2.524,3.018-2.524a2.729,2.729,0,0,1,3.018,2.341h-1.308a1.647,1.647,0,0,0-1.767-1.32c-.975-.023-1.756.482-1.756,1.469,0,2.352,4.911.884,4.911,4.257C404.073,33.744,403.018,35.017,401.044,35.017Z" transform="translate(-397.9 -25.7)" fill="##fff"/>
    <path id="Path_102" data-name="Path 102" d="M477.327,45.936c0-1.469-.78-2.2-1.962-2.2-1.2,0-2.02.769-2.02,2.318V50h-1.17v-4.05c0-1.469-.78-2.2-1.962-2.2-1.2,0-2.02.769-2.02,2.318v3.947H467V42.826h1.193v1.033a2.586,2.586,0,0,1,2.26-1.159,2.708,2.708,0,0,1,2.628,1.595,2.644,2.644,0,0,1,2.536-1.595,2.777,2.777,0,0,1,2.9,3.075V50h-1.17V45.936Z" transform="translate(-459.071 -40.749)" fill="#fff"/>
    <path id="Path_103" data-name="Path 103" d="M583.8,42.7a2.959,2.959,0,0,1,2.662,1.423v-1.3h1.2v7.16h-1.2V48.655a2.989,2.989,0,0,1-2.674,1.446,3.448,3.448,0,0,1-3.385-3.729A3.394,3.394,0,0,1,583.8,42.7Zm.23,1.033a2.419,2.419,0,0,0-2.421,2.639,2.436,2.436,0,1,0,2.421-2.639Z" transform="translate(-559.459 -40.749)" fill="#fff"/>
    <path id="Path_104" data-name="Path 104" d="M662.393,49.886H661.2V42.738h1.193V43.9a2.416,2.416,0,0,1,2.318-1.3v1.228h-.31c-1.136,0-2,.5-2,2.169l-.011,3.89Z" transform="translate(-630.988 -40.661)" fill="#98a2a8"/>
    <path id="Path_105" data-name="Path 105" d="M698.829,30.788H697.9v-.975h.929V28h1.193v1.813h1.87v.975h-1.87v4.223c0,.7.264.952,1,.952h.872v1.01h-1.067c-1.262,0-1.985-.528-1.985-1.962V30.788Z" transform="translate(-663.477 -27.736)" fill="#fff"/>
  </g>
  <path id="Path_106" data-name="Path 106" d="M118.965,0H95.5V23.477h23.477V0ZM102.981,16v-8.5h8.5V16Z" transform="translate(-84.542)" fill="#fff"/>
  <rect id="Rectangle_7" data-name="Rectangle 7" width="8.503" height="8.503" transform="translate(0 7.493)" fill="#fff"/>
</svg>
