<svg xmlns="http://www.w3.org/2000/svg" width="87.374" height="19.695" viewBox="0 0 87.374 19.695">
  <g id="Cards" transform="translate(-1124.248 -1978)">
    <g id="MasterCard" transform="translate(1178.728 1978)">
      <g id="Group_19" data-name="Group 19" transform="translate(0 0)">
        <g id="Group_18" data-name="Group 18">
          <path id="Path_58" data-name="Path 58" d="M23.048,9.716a9.8,9.8,0,0,0-6.6,2.546,9.809,9.809,0,0,0-6.6-2.544H9.782a9.845,9.845,0,1,0,6.662,17.146,9.737,9.737,0,0,1-1.007-1.076H17.47a9.843,9.843,0,0,1-1,1.055h0c-.008.009-.017.014-.025.022a9.843,9.843,0,0,0,16.449-7.3v0A9.842,9.842,0,0,0,23.048,9.716Zm-7.5,3.562h1.871a10.26,10.26,0,0,1,.764,1.054H14.847C15.062,13.981,15.3,13.619,15.55,13.278Zm-1.284,2.088h4.488a10.518,10.518,0,0,1,.425,1.055H13.734C13.788,16.319,13.978,15.909,14.265,15.366Zm-10.247,6.7.6-3.764L3.269,22.071H2.547l-.094-3.764-.638,3.764H.8l.838-4.992h1.53l.054,3.063,1.033-3.063H5.918l-.827,4.992Zm3.576-.008.035-.4a1.359,1.359,0,0,1-1.075.482,1,1,0,0,1-1.012-1.13c0-1.168.952-1.555,1.859-1.555.143,0,.45.026.45.026a.679.679,0,0,0,.035-.264c0-.317-.285-.361-.676-.361a3.318,3.318,0,0,0-1.142.184l.152-.9a3.625,3.625,0,0,1,1.269-.231,1.24,1.24,0,0,1,1.44,1.264l-.412,2.887Zm3.9-1.271c0,1.393-1.35,1.333-1.585,1.333A3.37,3.37,0,0,1,8.734,22l.14-.917a3.427,3.427,0,0,0,.931.16c.283,0,.649-.028.649-.365,0-.505-1.312-.384-1.312-1.585,0-1.059.787-1.369,1.562-1.369a4.89,4.89,0,0,1,.967.082l-.132.925s-.569-.047-.716-.047c-.373,0-.576.082-.576.342C10.247,19.747,11.5,19.491,11.5,20.791Zm1.621.365c.093,0,.2-.032.27-.032l-.131.89a2.7,2.7,0,0,1-.786.138.778.778,0,0,1-.835-.888c0-.416.6-3.841.619-3.863H13.3l-.107.613h.523L13.584,19h-.555l-.295,1.818C12.711,20.964,12.752,21.157,13.116,21.157ZM15.421,17.9a1.406,1.406,0,0,1,1.495,1.533,7.49,7.49,0,0,1-.139.956h-2.13s-.2.839.928.839a3.264,3.264,0,0,0,1.113-.258l-.185,1.01a2.658,2.658,0,0,1-1.107.173,1.645,1.645,0,0,1-1.811-1.833C13.588,19.034,14.367,17.9,15.421,17.9ZM18.2,24.774H14.7a9.736,9.736,0,0,1-.581-1.054h4.648A10.11,10.11,0,0,1,18.2,24.774Zm-.234-2.7H16.887l.654-4.063h.976l-.094.589s.348-.64.817-.64a1.123,1.123,0,0,1,.2.014,4.031,4.031,0,0,0-.39,1.216C18.325,18.935,18.269,20.343,17.963,22.078Zm4.1-.063a4.836,4.836,0,0,1-.917.144c-1.251,0-1.886-.863-1.886-2.171,0-1.972,1.177-3.022,2.387-3.022a3.753,3.753,0,0,1,1.18.257l-.171,1.111a1.866,1.866,0,0,0-.962-.3c-.713,0-1.353.681-1.353,1.917a1.037,1.037,0,0,0,1.043,1.177,2.512,2.512,0,0,0,.867-.257Zm2.523.05.035-.4a1.363,1.363,0,0,1-1.075.482,1,1,0,0,1-1.012-1.13c0-1.168.952-1.555,1.858-1.555.143,0,.451.026.451.026a.661.661,0,0,0,.035-.264c0-.317-.285-.361-.676-.361a3.312,3.312,0,0,0-1.142.184l.152-.9a3.626,3.626,0,0,1,1.27-.231,1.239,1.239,0,0,1,1.439,1.264l-.412,2.887S24.585,22.065,24.585,22.065Zm2.178.014H25.688l.654-4.063h.977l-.094.589s.348-.64.818-.64a1.109,1.109,0,0,1,.2.014,4.031,4.031,0,0,0-.39,1.216C27.126,18.935,27.07,20.343,26.764,22.078Zm3.212-.011.046-.374a1.309,1.309,0,0,1-.977.439c-.871,0-1.3-.842-1.3-1.7,0-1.33.8-2.489,1.761-2.489a1.39,1.39,0,0,1,1.013.547l.227-1.4,1.051,0L31,22.067Zm2.073-.141a.313.313,0,0,1-.118.119.316.316,0,0,1-.315,0,.322.322,0,0,1-.16-.276.324.324,0,0,1,.042-.159.3.3,0,0,1,.119-.118.323.323,0,0,1,.156-.042.317.317,0,0,1,.156.042.29.29,0,0,1,.12.118.318.318,0,0,1,0,.317Z" transform="translate(0 -9.716)" fill="#181818"/>
        </g>
      </g>
      <g id="Group_21" data-name="Group 21" transform="translate(31.822 15.193)">
        <g id="Group_20" data-name="Group 20">
          <path id="Path_59" data-name="Path 59" d="M46.994,32.106a.1.1,0,0,0-.024-.016.166.166,0,0,0-.054-.006h-.064v.1h.068a.1.1,0,0,0,.065-.014A.045.045,0,0,0,47,32.134.051.051,0,0,0,46.994,32.106Z" transform="translate(-46.852 -32.084)" fill="#181818"/>
        </g>
      </g>
      <g id="Group_23" data-name="Group 23" transform="translate(31.59 14.994)">
        <g id="Group_22" data-name="Group 22">
          <path id="Path_60" data-name="Path 60" d="M47.1,31.951a.292.292,0,0,0-.12-.118.321.321,0,0,0-.156-.042.317.317,0,0,0-.156.042.3.3,0,0,0-.12.118.308.308,0,0,0-.042.158.321.321,0,0,0,.042.158.315.315,0,0,0,.118.119.324.324,0,0,0,.159.042.318.318,0,0,0,.157-.042.3.3,0,0,0,.118-.119.312.312,0,0,0,.042-.158A.319.319,0,0,0,47.1,31.951Zm-.2.334h0l-.03-.054a.284.284,0,0,0-.058-.081.075.075,0,0,0-.043-.012h-.032v.146h-.056v-.343h.118a.253.253,0,0,1,.086.01.077.077,0,0,1,.043.033.086.086,0,0,1,.016.05.1.1,0,0,1-.026.066.11.11,0,0,1-.071.031.074.074,0,0,1,.029.018.4.4,0,0,1,.051.067l.042.067Z" transform="translate(-46.51 -31.791)" fill="#181818"/>
        </g>
      </g>
      <g id="Group_25" data-name="Group 25" transform="translate(6.563 10.524)">
        <g id="Group_24" data-name="Group 24" transform="translate(0 0)">
          <path id="Path_61" data-name="Path 61" d="M10.586,25.211c-.768,0-.924.345-.924.632a.381.381,0,0,0,.41.4c.631,0,.762-.827.742-1A.637.637,0,0,0,10.586,25.211Z" transform="translate(-9.662 -25.211)" fill="#181818"/>
        </g>
      </g>
      <g id="Group_27" data-name="Group 27" transform="translate(14.744 9.12)">
        <g id="Group_26" data-name="Group 26" transform="translate(0 0)">
          <path id="Path_62" data-name="Path 62" d="M22.389,23.144c-.571,0-.681.65-.681.719h1.163C22.871,23.81,22.981,23.144,22.389,23.144Z" transform="translate(-21.708 -23.144)" fill="#181818"/>
        </g>
      </g>
      <g id="Group_29" data-name="Group 29" transform="translate(28.862 9.234)">
        <g id="Group_28" data-name="Group 28" transform="translate(0 0)">
          <path id="Path_63" data-name="Path 63" d="M43.319,23.311c-.461,0-.826.535-.825,1.348,0,.5.177.814.554.814.568,0,.842-.741.842-1.293C43.89,23.57,43.7,23.311,43.319,23.311Z" transform="translate(-42.494 -23.311)" fill="#181818"/>
        </g>
      </g>
      <g id="Group_31" data-name="Group 31" transform="translate(31.507 11.788)">
        <g id="Group_30" data-name="Group 30">
          <path id="Path_64" data-name="Path 64" d="M46.882,27.2a.256.256,0,0,0-.1-.1.259.259,0,0,0-.13-.035.27.27,0,0,0-.13.035.239.239,0,0,0-.1.1.274.274,0,0,0-.036.132.265.265,0,0,0,.134.231.271.271,0,0,0,.131.037.267.267,0,0,0,.131-.037.258.258,0,0,0,.1-.1.264.264,0,0,0,.035-.132A.272.272,0,0,0,46.882,27.2Zm-.147.307-.031-.053a.274.274,0,0,0-.057-.08.069.069,0,0,0-.045-.013h-.031v.145h-.057v-.342h.119a.242.242,0,0,1,.087.011.1.1,0,0,1,.043.033.079.079,0,0,1,.016.05.093.093,0,0,1-.027.065.107.107,0,0,1-.071.031.094.094,0,0,1,.029.018.347.347,0,0,1,.05.067l.042.068Z" transform="translate(-46.388 -27.071)" fill="#181818"/>
        </g>
      </g>
      <g id="Group_33" data-name="Group 33" transform="translate(23.554 10.524)">
        <g id="Group_32" data-name="Group 32" transform="translate(0 0)">
          <path id="Path_65" data-name="Path 65" d="M35.6,25.211c-.768,0-.924.345-.924.632a.381.381,0,0,0,.41.4c.631,0,.761-.827.742-1A.645.645,0,0,0,35.6,25.211Z" transform="translate(-34.679 -25.211)" fill="#181818"/>
        </g>
      </g>
      <g id="Group_35" data-name="Group 35" transform="translate(31.69 11.932)">
        <g id="Group_34" data-name="Group 34">
          <path id="Path_66" data-name="Path 66" d="M46.8,27.307a.062.062,0,0,0-.023-.017.192.192,0,0,0-.056-.007h-.062v.1h.067a.108.108,0,0,0,.066-.014.053.053,0,0,0,.016-.038A.045.045,0,0,0,46.8,27.307Z" transform="translate(-46.657 -27.283)" fill="#181818"/>
        </g>
      </g>
    </g>
    <g id="Visa" transform="translate(1124.247 1981.939)">
      <g id="Group_37" data-name="Group 37" transform="translate(13.42 0.197)">
        <g id="Group_36" data-name="Group 36" transform="translate(0 0)">
          <path id="Path_67" data-name="Path 67" d="M18.673,16.8,16.722,28.248h3.12L21.795,16.8Z" transform="translate(-16.722 -16.799)" fill="#181818"/>
        </g>
      </g>
      <g id="Group_39" data-name="Group 39" transform="translate(3.099 0.207)">
        <g id="Group_38" data-name="Group 38">
          <path id="Path_68" data-name="Path 68" d="M11.566,16.814,8.51,24.622l-.326-1.179A12.25,12.25,0,0,0,3.862,18.7l2.794,9.548,3.3-.006,4.914-11.427Z" transform="translate(-3.862 -16.812)" fill="#181818"/>
        </g>
      </g>
      <g id="Group_41" data-name="Group 41" transform="translate(0 0.099)">
        <g id="Group_40" data-name="Group 40" transform="translate(0 0)">
          <path id="Path_69" data-name="Path 69" d="M6.237,17.607a1.255,1.255,0,0,0-1.359-.93H.04L0,16.9c3.765.913,6.256,3.114,7.289,5.76Z" transform="translate(0 -16.677)" fill="#181818"/>
        </g>
      </g>
      <g id="Group_43" data-name="Group 43" transform="translate(18.492 0)">
        <g id="Group_42" data-name="Group 42">
          <path id="Path_70" data-name="Path 70" d="M29.367,18.946a5.76,5.76,0,0,1,2.335.438l.282.132.422-2.481a8.054,8.054,0,0,0-2.8-.481c-3.083,0-5.256,1.553-5.273,3.778-.02,1.644,1.548,2.562,2.733,3.111,1.216.562,1.623.919,1.618,1.42-.01.766-.969,1.118-1.866,1.118a6.55,6.55,0,0,1-2.938-.6l-.4-.183-.439,2.562a9.882,9.882,0,0,0,3.477.61c3.28,0,5.411-1.534,5.434-3.912.014-1.3-.819-2.294-2.622-3.108-1.091-.531-1.759-.884-1.753-1.42C27.579,19.454,28.145,18.946,29.367,18.946Z" transform="translate(-23.043 -16.554)" fill="#181818"/>
        </g>
      </g>
      <g id="Group_45" data-name="Group 45" transform="translate(27.184 0.209)">
        <g id="Group_44" data-name="Group 44" transform="translate(0 0)">
          <path id="Path_71" data-name="Path 71" d="M42.552,16.815H40.142a1.552,1.552,0,0,0-1.635.95L33.874,28.257h3.277s.534-1.411.656-1.72l4,0c.093.4.38,1.715.38,1.715h2.895ZM38.7,24.194c.257-.657,1.243-3.2,1.243-3.2-.017.031.254-.662.416-1.093l.21.987.723,3.306Z" transform="translate(-33.874 -16.815)" fill="#181818"/>
        </g>
      </g>
    </g>
  </g>
</svg>
