<svg xmlns="http://www.w3.org/2000/svg" width="16.883" height="20" viewBox="0 0 16.883 20">
  <g id="Group_48" data-name="Group 48" transform="translate(0)">
    <path id="Path_83" data-name="Path 83" d="M23.658,39.218a2.133,2.133,0,0,0-1.825-1.659,56.722,56.722,0,0,0-6.321-.234,56.74,56.74,0,0,0-6.322.234,2.132,2.132,0,0,0-1.824,1.659,18.077,18.077,0,0,0-.3,3.991A18.073,18.073,0,0,0,7.361,47.2a2.132,2.132,0,0,0,1.825,1.659,56.725,56.725,0,0,0,6.322.234,56.685,56.685,0,0,0,6.322-.234A2.133,2.133,0,0,0,23.654,47.2a18.087,18.087,0,0,0,.3-3.991A18.1,18.1,0,0,0,23.658,39.218Zm-11.775.991H10.661V46.7H9.526V40.209h-1.2V39.146h3.557ZM14.965,46.7H13.944v-.614a1.635,1.635,0,0,1-1.166.692.626.626,0,0,1-.657-.418,2.874,2.874,0,0,1-.09-.837V41.072h1.02v4.146a3.176,3.176,0,0,0,.009.4c.024.158.1.239.239.239.2,0,.419-.158.645-.478v-4.3h1.021V46.7Zm3.876-1.69a4.5,4.5,0,0,1-.1,1.135.808.808,0,0,1-.815.633,1.39,1.39,0,0,1-1.055-.623V46.7h-1.02V39.146h1.02v2.468A1.382,1.382,0,0,1,17.923,41a.807.807,0,0,1,.815.635,4.324,4.324,0,0,1,.1,1.132Zm3.85-.939h-2.04v1c0,.521.17.781.521.781a.438.438,0,0,0,.456-.409,6.419,6.419,0,0,0,.023-.691h1.041V44.9c0,.329-.013.555-.022.657a1.454,1.454,0,0,1-.238.611,1.412,1.412,0,0,1-1.234.611,1.461,1.461,0,0,1-1.235-.577,2.181,2.181,0,0,1-.328-1.324V42.907a2.191,2.191,0,0,1,.315-1.327A1.45,1.45,0,0,1,21.173,41a1.417,1.417,0,0,1,1.2.577,2.213,2.213,0,0,1,.316,1.327v1.166Z" transform="translate(-7.067 -29.093)" fill="#181818"/>
    <path id="Path_84" data-name="Path 84" d="M69.169,58.163q-.511,0-.512.781v.521h1.02v-.521C69.677,58.423,69.506,58.163,69.169,58.163Z" transform="translate(-55.072 -45.334)" fill="#181818"/>
    <path id="Path_85" data-name="Path 85" d="M52.014,58.163a.731.731,0,0,0-.509.248v3.432a.728.728,0,0,0,.509.251c.294,0,.444-.251.444-.76v-2.4C52.458,58.423,52.308,58.163,52.014,58.163Z" transform="translate(-41.704 -45.334)" fill="#181818"/>
    <path id="Path_86" data-name="Path 86" d="M53.726,14.588a1.656,1.656,0,0,0,1.178-.7v.621h1.031V8.82H54.9v4.349c-.229.323-.445.483-.651.483-.138,0-.219-.082-.242-.242a2.391,2.391,0,0,1-.013-.4V8.82H52.97v4.5a2.875,2.875,0,0,0,.091.846A.633.633,0,0,0,53.726,14.588Z" transform="translate(-42.845 -6.875)" fill="#181818"/>
    <path id="Path_87" data-name="Path 87" d="M18.789,4.543V7.636h1.143V4.543L21.308,0H20.152l-.78,3L18.56,0h-1.2c.241.708.492,1.419.733,2.128A18.81,18.81,0,0,1,18.789,4.543Z" transform="translate(-15.087)" fill="#181818"/>
    <path id="Path_88" data-name="Path 88" d="M36.836,14.345a1.406,1.406,0,0,0,1.2-.583,2.226,2.226,0,0,0,.32-1.338V10.432a2.23,2.23,0,0,0-.32-1.34,1.529,1.529,0,0,0-2.4,0,2.211,2.211,0,0,0-.323,1.34v1.993a2.206,2.206,0,0,0,.323,1.338A1.405,1.405,0,0,0,36.836,14.345Zm-.492-4.12c0-.526.16-.789.492-.789s.492.262.492.789v2.394c0,.526-.159.79-.492.79s-.492-.263-.492-.79Z" transform="translate(-29.083 -6.631)" fill="#181818"/>
  </g>
</svg>
