<svg id="Instagram" xmlns="http://www.w3.org/2000/svg" width="20" height="20" viewBox="0 0 20 20">
  <path id="Path_81" data-name="Path 81" d="M2.567,0H17.433A2.506,2.506,0,0,1,20,2.567V17.433A2.506,2.506,0,0,1,17.433,20H2.567A2.506,2.506,0,0,1,0,17.433V2.567A2.506,2.506,0,0,1,2.567,0Zm12,2.222a.9.9,0,0,0-.9.9V5.278a.9.9,0,0,0,.9.9h2.26a.9.9,0,0,0,.9-.9V3.123a.9.9,0,0,0-.9-.9Zm3.17,6.236h-1.76a5.85,5.85,0,0,1,.257,1.716A6.123,6.123,0,0,1,10.019,16.2,6.122,6.122,0,0,1,3.8,10.174a5.84,5.84,0,0,1,.257-1.716H2.222v8.448a.8.8,0,0,0,.8.8H16.945a.8.8,0,0,0,.8-.8V8.458ZM10.019,6.065A3.956,3.956,0,0,0,6,9.957a3.956,3.956,0,0,0,4.017,3.892,3.956,3.956,0,0,0,4.017-3.892A3.956,3.956,0,0,0,10.019,6.065Z" fill="#181818"/>
</svg>
