<svg xmlns="http://www.w3.org/2000/svg" width="79.2" height="20.4" viewBox="0 0 79.2 20.4"><g transform="translate(-0.6 -3.6)"><path d="M6.2,8.1a1.179,1.179,0,0,1-1-.5,2.954,2.954,0,0,0,.6-1.8c0-1-.6-1.6-1.2-1.6C3.8,4.2,3.5,5,3.5,6v6.9c0,3.2,1.8,4.6,3.2,4.6,1.1,0,1.7-.6,1.7-1.5,0-2.4-4.3-1.4-4.3-4A1.76,1.76,0,0,1,6,10.2c1.5,0,4,1.2,4,3.8a4.226,4.226,0,0,1-4.5,4.4C2.8,18.4.6,16.6.6,14V7.2c0-2,1.7-3.6,4.1-3.6a4.274,4.274,0,0,1,2.2.7A3.3,3.3,0,0,1,9,3.6c.8,0,3.2.7,3.2,3.1A2.47,2.47,0,0,1,9.7,9.4,2.767,2.767,0,0,1,8.3,9,2.217,2.217,0,0,0,9.7,6.7,2.191,2.191,0,0,0,7.9,4.3a3.548,3.548,0,0,0-.7.1h0A2.981,2.981,0,0,1,7.9,6,1.933,1.933,0,0,1,6.2,8.1Z" fill="#181818"/><path d="M15.9,9.1c0,1.7,3.8,2.8,3.8,5.8,0,2.3-2,3.3-4.2,3.3-2.7,0-4.3-1.4-4.3-3.5,0-1.4.8-2.1,1.7-2.1a1.55,1.55,0,0,1,1.6,1.7c0,.9-.6,1.1-.6,2a1.484,1.484,0,0,0,1.6,1.4A1.572,1.572,0,0,0,17.2,16c0-2.2-3.1-2.6-3.1-5.3a2.017,2.017,0,0,1,1.9-2A.756.756,0,0,0,15.9,9.1Z" fill="#181818"/><path d="M23.4,18.2c-2.2,0-2.9-2.9-2.9-4.1,0-1.9,1-4.8,4.5-4.8a4.593,4.593,0,0,1,4.8,4.9c0,1.7-1.3,4-3.3,4a1.952,1.952,0,0,1-.7-.1,6.514,6.514,0,0,0,1.1-4c0-2.2-1.3-4.1-2.9-4.1a1.485,1.485,0,0,0-1.6,1.6c0,2.3,2.6,2.8,2.6,5A1.518,1.518,0,0,1,23.4,18.2Z" fill="#181818"/><path d="M40.7,13.9c0,2.6-2.2,4.4-4.9,4.4s-4.9-1.8-4.9-4.4V3.6a3.43,3.43,0,0,1,3.6,3.7c0,1.4-.6,4.2-.6,5.8.1,2.7,2.2,4.3,3.6,4.3a1.774,1.774,0,0,0,1.8-1.7c0-1.3-1.3-1.7-2.4-2.1-.8-.3-2.2-.7-2.2-2.1,0-1.3.8-1.8,2.2-1.8A4.32,4.32,0,0,1,40.7,13.9Z" fill="#181818"/><path d="M49.8,19.2c0,3.4-2,4.8-4.7,4.8a4.308,4.308,0,0,1-4.6-4.4c0-2.2,1.4-2.6,2.2-2.6a1.888,1.888,0,0,1,1.9,1.9c0,1.6-.8,1.7-.8,3.1a1.522,1.522,0,0,0,1.6,1.6c1.4,0,1.5-1.2,1.5-2.2V13.5c0-2.2-.8-3.6-1.9-3.6A1.221,1.221,0,0,0,43.7,11c0,1.8,1.6,1.2,1.6,2.9a1.346,1.346,0,0,1-1.4,1.3,2.38,2.38,0,0,1-2.2-2.3c0-2.1,1.7-3.5,3.9-3.5a4.031,4.031,0,0,1,4.3,4.1v5.7Z" fill="#181818"/><path d="M60.2,13.9c0,2.6-2.2,4.4-4.9,4.4a4.226,4.226,0,0,1-4.5-4.4c0-2.6,2.5-3.8,4.1-3.8a1.847,1.847,0,0,1,2,1.8c0,2.6-4.4,1.5-4.4,4,0,.9.6,1.5,1.7,1.5,1.4,0,3.2-1.3,3.2-4.5V7.6c0-2.2-1.1-3.4-2.2-3.4A1.131,1.131,0,0,0,54,5.3c0,1.8,1.7,1,1.7,2.7a1.346,1.346,0,0,1-1.4,1.3A2.308,2.308,0,0,1,52.1,7c0-2.1,1.7-3.4,3.9-3.4a3.98,3.98,0,0,1,4.3,4.1v6.2Z" fill="#181818"/><path d="M61.4,13.9V3.6A3.43,3.43,0,0,1,65,7.3c0,1.4-.6,4.3-.6,5.8,0,2.8.3,4.5,2.1,4.5a1.515,1.515,0,0,0,1.6-1.7c0-1.6-2.2-3.1-2.2-4.8a2.335,2.335,0,0,1,2.6-2.5h.6a2.092,2.092,0,0,0-.4,1.2c0,1.3,1.9,2.9,1.9,4.8,0,1.6-1.1,3.4-4.5,3.4C63.4,18.2,61.4,16.5,61.4,13.9Z" fill="#181818"/><path d="M79.7,19.2c0,3.4-2,4.8-4.7,4.8a4.308,4.308,0,0,1-4.6-4.4c0-2.2,1.4-2.6,2.2-2.6a1.888,1.888,0,0,1,1.9,1.9c0,1.6-.8,1.7-.8,3.1a1.522,1.522,0,0,0,1.6,1.6c1.4,0,1.5-1.2,1.5-2.2V13.5c0-2.2-.8-3.6-1.9-3.6A1.221,1.221,0,0,0,73.6,11c0,1.8,1.6,1.2,1.6,2.9a1.346,1.346,0,0,1-1.4,1.3,2.38,2.38,0,0,1-2.2-2.3c0-2.1,1.7-3.5,3.9-3.5a4.031,4.031,0,0,1,4.3,4.1v5.7Z" fill="#181818"/></g></svg>