<svg xmlns="http://www.w3.org/2000/svg" width="146" height="35.003" viewBox="0 0 146 35.003"><g transform="translate(58.233 17.198)"><path d="M398.518,136.8a3.19,3.19,0,0,1,2.916,1.51v-1.376H404.9v9.916h-3.463v-1.376a3.224,3.224,0,0,1-2.916,1.51c-2.353,0-4.218-1.924-4.218-5.091S396.165,136.8,398.518,136.8Zm1.11,3.019a1.825,1.825,0,0,0-1.806,2.057,1.821,1.821,0,1,0,1.806-2.057Z" transform="translate(-394.3 -133.751)" fill="#fff"/><path d="M480.517,136.8a4.633,4.633,0,0,1,4.84,3.922h-3.671a1.227,1.227,0,0,0-1.243-.977c-.844,0-1.421.71-1.421,2.116,0,1.436.562,2.131,1.421,2.131a1.235,1.235,0,0,0,1.243-.977h3.671a4.668,4.668,0,0,1-4.84,3.922,5.069,5.069,0,0,1,0-10.138Z" transform="translate(-463.482 -133.751)" fill="#fff"/><path d="M552.218,136.8a3.19,3.19,0,0,1,2.916,1.51v-1.376H558.6v9.916h-3.463v-1.376a3.224,3.224,0,0,1-2.916,1.51c-2.353,0-4.218-1.924-4.218-5.091S549.865,136.8,552.218,136.8Zm1.11,3.019a1.825,1.825,0,0,0-1.806,2.057,1.821,1.821,0,1,0,1.806-2.057Z" transform="translate(-525.252 -133.751)" fill="#fff"/><path d="M633.433,119.249a3.261,3.261,0,0,1,2.886,1.48V116.2H639.8v13.084h-3.478v-1.376a3.2,3.2,0,0,1-2.9,1.51c-2.353,0-4.218-1.924-4.218-5.091S631.065,119.249,633.433,119.249Zm1.1,3.019a1.825,1.825,0,0,0-1.806,2.057,1.821,1.821,0,1,0,1.806-2.057Z" transform="translate(-594.434 -116.2)" fill="#fff"/><path d="M715.432,146.868a5.084,5.084,0,0,1,0-10.168,4.7,4.7,0,0,1,5,4.973,5.005,5.005,0,0,1-.059.814h-6.557c.074,1.154.7,1.613,1.465,1.613a1.314,1.314,0,0,0,1.243-.784h3.7A4.717,4.717,0,0,1,715.432,146.868Zm-1.6-6.053H716.9a1.36,1.36,0,0,0-1.48-1.362A1.5,1.5,0,0,0,713.834,140.815Z" transform="translate(-663.616 -133.666)" fill="#fff"/><path d="M801.3,141.692a1.643,1.643,0,1,0-3.286,0v5.313h-3.463v-5.313a1.643,1.643,0,1,0-3.286,0v5.313H787.8v-9.916h3.463v1.3A3.405,3.405,0,0,1,794.149,137a3.617,3.617,0,0,1,3.3,1.82,3.969,3.969,0,0,1,3.3-1.82c2.516,0,4.011,1.628,4.011,4.218v5.772H801.3v-5.3Z" transform="translate(-729.56 -133.921)" fill="#fff"/><path d="M915.848,137.6h3.8l-6.29,14.638H909.6l2.368-5.151L907.9,137.6h3.848l2.087,5.624Z" transform="translate(-831.885 -134.433)" fill="#fff"/></g><g transform="translate(58.815 3.804)"><path d="M401.955,37.718c-2.353,0-4.026-1.317-4.055-3.256h1.628a2.182,2.182,0,0,0,2.427,1.954c1.48,0,2.353-.844,2.353-1.954,0-3.167-6.349-1.14-6.349-5.506,0-1.939,1.569-3.256,3.893-3.256,2.235,0,3.7,1.228,3.893,3.019h-1.687a2.124,2.124,0,0,0-2.279-1.7c-1.258-.03-2.264.622-2.264,1.894,0,3.034,6.335,1.14,6.335,5.491C405.863,36.075,404.5,37.718,401.955,37.718Z" transform="translate(-397.9 -25.7)" fill="#fff"/><path d="M480.32,46.874c0-1.894-1.006-2.842-2.531-2.842-1.554,0-2.6.992-2.6,2.99v5.091h-1.51V46.889c0-1.894-1.006-2.842-2.531-2.842-1.554,0-2.6.992-2.6,2.99v5.091H467V42.863h1.539v1.332a3.336,3.336,0,0,1,2.916-1.495,3.493,3.493,0,0,1,3.389,2.057,3.41,3.41,0,0,1,3.271-2.057c2.1,0,3.744,1.317,3.744,3.967v5.447h-1.51V46.874Z" transform="translate(-456.773 -40.184)" fill="#fff"/><path d="M584.781,42.7a3.816,3.816,0,0,1,3.434,1.835V42.863h1.554V52.1h-1.554V50.381a3.856,3.856,0,0,1-3.449,1.865c-2.457,0-4.366-1.939-4.366-4.81S582.294,42.7,584.781,42.7Zm.3,1.332a3.12,3.12,0,0,0-3.123,3.4,3.144,3.144,0,1,0,6.261.015A3.169,3.169,0,0,0,585.077,44.032Z" transform="translate(-553.389 -40.184)" fill="#fff"/><path d="M662.739,52H661.2V42.778h1.539v1.495a3.116,3.116,0,0,1,2.99-1.672v1.584h-.4c-1.465,0-2.575.651-2.575,2.8L662.739,52Z" transform="translate(-622.23 -40.099)" fill="#fff"/><path d="M699.1,31.6h-1.2V30.338h1.2V28h1.539v2.338h2.412V31.6h-2.412v5.447c0,.9.34,1.228,1.288,1.228h1.125v1.3h-1.376c-1.628,0-2.56-.681-2.56-2.531V31.6Z" transform="translate(-653.499 -27.66)" fill="#fff"/></g><path d="M125.767,0H95.5V30.282h30.282V0ZM105.15,20.632V9.665h10.967V20.632Z" transform="translate(-81.366)" fill="#fff"/><rect width="10.967" height="10.967" transform="translate(0 9.665)" fill="#fff"/></svg>