<svg xmlns="http://www.w3.org/2000/svg" width="100.753" height="25" viewBox="0 0 100.753 25"><g transform="translate(-1124.248 -1978)"><g transform="translate(1183.247 1968.284)"><g transform="translate(0 9.716)"><path d="M29.256,9.716a12.444,12.444,0,0,0-8.381,3.231A12.451,12.451,0,0,0,12.5,9.719h-.08a12.5,12.5,0,1,0,8.456,21.764A12.36,12.36,0,0,1,19.6,30.117h2.58a12.5,12.5,0,0,1-1.269,1.339h0c-.01.011-.022.018-.032.028a12.494,12.494,0,0,0,20.88-9.268V22.21A12.493,12.493,0,0,0,29.256,9.716Zm-9.517,4.522h2.375a13.023,13.023,0,0,1,.97,1.338H18.846C19.119,15.129,19.419,14.67,19.738,14.238Zm-1.63,2.65h5.7a13.351,13.351,0,0,1,.539,1.339h-6.91C17.5,18.1,17.743,17.577,18.108,16.888ZM5.1,25.4l.758-4.778L4.15,25.4H3.233l-.119-4.778L2.3,25.4H1.021l1.064-6.337H4.026l.068,3.888,1.311-3.888H7.512L6.463,25.4Zm4.539-.01.044-.506a1.726,1.726,0,0,1-1.365.611A1.263,1.263,0,0,1,7.035,24.06c0-1.482,1.209-1.973,2.36-1.973.181,0,.572.033.572.033a.862.862,0,0,0,.044-.335c0-.4-.362-.458-.858-.458a4.212,4.212,0,0,0-1.45.234L7.9,20.413a4.6,4.6,0,0,1,1.611-.293,1.573,1.573,0,0,1,1.828,1.6l-.522,3.664Zm4.951-1.614c0,1.768-1.713,1.692-2.012,1.692a4.278,4.278,0,0,1-1.493-.163l.178-1.164a4.35,4.35,0,0,0,1.182.2c.359,0,.824-.035.824-.464,0-.641-1.666-.488-1.666-2.011,0-1.344,1-1.737,1.983-1.737a6.207,6.207,0,0,1,1.228.1l-.168,1.174s-.722-.059-.909-.059c-.473,0-.731.1-.731.435C13.007,22.449,14.592,22.123,14.592,23.774Zm2.057.464c.118,0,.252-.041.343-.041l-.166,1.13a3.429,3.429,0,0,1-1,.175.987.987,0,0,1-1.06-1.128c0-.528.756-4.876.785-4.9h1.33l-.135.778h.664l-.17,1.253h-.7l-.374,2.308C16.135,23.993,16.186,24.238,16.649,24.238ZM19.575,20.1a1.785,1.785,0,0,1,1.9,1.946,9.508,9.508,0,0,1-.176,1.213h-2.7s-.25,1.065,1.179,1.065A4.144,4.144,0,0,0,21.185,24l-.235,1.282a3.375,3.375,0,0,1-1.405.219,2.089,2.089,0,0,1-2.3-2.327C17.247,21.544,18.237,20.1,19.575,20.1ZM23.1,28.83H18.666a12.358,12.358,0,0,1-.738-1.338h5.9A12.834,12.834,0,0,1,23.1,28.83Zm-.3-3.422H21.436l.83-5.157h1.239L23.386,21s.441-.813,1.037-.813a1.425,1.425,0,0,1,.257.017,5.117,5.117,0,0,0-.495,1.543C23.261,21.418,23.19,23.205,22.8,25.408Zm5.2-.08a6.139,6.139,0,0,1-1.164.183c-1.588,0-2.394-1.1-2.394-2.755,0-2.5,1.494-3.836,3.03-3.836a4.764,4.764,0,0,1,1.5.326l-.217,1.41a2.369,2.369,0,0,0-1.221-.38c-.905,0-1.717.864-1.717,2.434A1.317,1.317,0,0,0,27.142,24.2a3.189,3.189,0,0,0,1.1-.327Zm3.2.063.045-.51a1.73,1.73,0,0,1-1.365.611A1.263,1.263,0,0,1,28.6,24.059c0-1.482,1.209-1.973,2.359-1.973.181,0,.572.033.572.033a.839.839,0,0,0,.045-.335c0-.4-.362-.458-.859-.458a4.2,4.2,0,0,0-1.449.234l.193-1.147a4.6,4.6,0,0,1,1.612-.293,1.573,1.573,0,0,1,1.827,1.6l-.522,3.664S31.208,25.391,31.208,25.391Zm2.765.017H32.607l.83-5.157h1.24L34.558,21s.442-.813,1.038-.813a1.408,1.408,0,0,1,.256.017,5.117,5.117,0,0,0-.495,1.543C34.432,21.418,34.361,23.205,33.972,25.408Zm4.077-.014.058-.475a1.662,1.662,0,0,1-1.24.557c-1.106,0-1.648-1.068-1.648-2.16,0-1.688,1.016-3.16,2.235-3.16a1.764,1.764,0,0,1,1.285.694l.288-1.78,1.334,0-1.017,6.327Zm2.631-.178a.4.4,0,0,1-.149.151.4.4,0,0,1-.4,0,.409.409,0,0,1-.2-.351.411.411,0,0,1,.053-.2.383.383,0,0,1,.151-.15.41.41,0,0,1,.2-.053.4.4,0,0,1,.2.053.369.369,0,0,1,.152.15.4.4,0,0,1,0,.4Z" transform="translate(0 -9.716)" fill="#fff"/></g><g transform="translate(40.394 29.001)"><path d="M47.032,32.112a.123.123,0,0,0-.03-.021.21.21,0,0,0-.069-.008h-.081v.129h.086a.121.121,0,0,0,.083-.018.057.057,0,0,0,.022-.047A.065.065,0,0,0,47.032,32.112Z" transform="translate(-46.852 -32.084)" fill="#fff"/></g><g transform="translate(40.099 28.748)"><path d="M47.264,31.994a.371.371,0,0,0-.153-.15.407.407,0,0,0-.2-.053.4.4,0,0,0-.2.053.374.374,0,0,0-.152.15.391.391,0,0,0-.053.2.407.407,0,0,0,.053.2.4.4,0,0,0,.15.151.411.411,0,0,0,.2.053.4.4,0,0,0,.2-.053.386.386,0,0,0,.149-.151.4.4,0,0,0,.053-.2A.4.4,0,0,0,47.264,31.994Zm-.248.424h0l-.038-.068a.36.36,0,0,0-.074-.1.1.1,0,0,0-.055-.016h-.041v.185h-.071v-.435h.15A.321.321,0,0,1,47,32a.1.1,0,0,1,.055.042.109.109,0,0,1,.02.064.124.124,0,0,1-.034.084.14.14,0,0,1-.091.04.094.094,0,0,1,.037.023.509.509,0,0,1,.065.085l.053.085Z" transform="translate(-46.51 -31.791)" fill="#fff"/></g><g transform="translate(8.33 23.075)"><g transform="translate(0 0)"><path d="M10.835,25.211c-.975,0-1.173.438-1.173.8a.484.484,0,0,0,.521.5c.8,0,.967-1.05.941-1.273A.809.809,0,0,0,10.835,25.211Z" transform="translate(-9.662 -25.211)" fill="#fff"/></g></g><g transform="translate(18.716 21.293)"><g transform="translate(0 0)"><path d="M22.573,23.144c-.725,0-.865.825-.865.912h1.477C23.185,23.99,23.324,23.144,22.573,23.144Z" transform="translate(-21.708 -23.144)" fill="#fff"/></g></g><g transform="translate(36.637 21.437)"><g transform="translate(0 0)"><path d="M43.542,23.311c-.585,0-1.048.679-1.048,1.711,0,.629.224,1.033.7,1.033.721,0,1.068-.941,1.068-1.642C44.266,23.64,44.02,23.311,43.542,23.311Z" transform="translate(-42.494 -23.311)" fill="#fff"/></g></g><g transform="translate(39.994 24.679)"><path d="M47.015,27.241a.325.325,0,0,0-.126-.125.329.329,0,0,0-.165-.045.343.343,0,0,0-.165.045.3.3,0,0,0-.126.125.347.347,0,0,0-.046.168.336.336,0,0,0,.17.293.344.344,0,0,0,.166.047.339.339,0,0,0,.166-.047.327.327,0,0,0,.126-.126.335.335,0,0,0,.044-.167A.345.345,0,0,0,47.015,27.241Zm-.187.39-.039-.067a.348.348,0,0,0-.072-.1.088.088,0,0,0-.057-.016h-.04v.185h-.072V27.2H46.7a.307.307,0,0,1,.11.014.123.123,0,0,1,.055.041.1.1,0,0,1,.02.064.118.118,0,0,1-.034.083.135.135,0,0,1-.09.04.12.12,0,0,1,.037.022.44.44,0,0,1,.064.085l.053.086Z" transform="translate(-46.388 -27.071)" fill="#fff"/></g><g transform="translate(29.899 23.075)"><g transform="translate(0 0)"><path d="M35.852,25.211c-.975,0-1.173.438-1.173.8a.483.483,0,0,0,.521.5c.8,0,.966-1.05.941-1.273A.819.819,0,0,0,35.852,25.211Z" transform="translate(-34.679 -25.211)" fill="#fff"/></g></g><g transform="translate(40.226 24.862)"><path d="M46.835,27.313a.079.079,0,0,0-.029-.022.244.244,0,0,0-.071-.009h-.078v.131h.085a.136.136,0,0,0,.084-.018.067.067,0,0,0,.021-.048A.058.058,0,0,0,46.835,27.313Z" transform="translate(-46.657 -27.283)" fill="#fff"/></g></g><g transform="translate(1124.247 1966.446)"><g transform="translate(17.034 16.804)"><g transform="translate(0 0)"><path d="M19.2,16.8,16.722,31.331h3.961L23.161,16.8Z" transform="translate(-16.722 -16.799)" fill="#fff"/></g></g><g transform="translate(3.934 16.817)"><path d="M13.641,16.815,9.762,26.726l-.414-1.5A15.549,15.549,0,0,0,3.862,19.2L7.409,31.324l4.191-.007,6.237-14.5Z" transform="translate(-3.862 -16.812)" fill="#fff"/></g><g transform="translate(0 16.679)"><g transform="translate(0 0)"><path d="M7.917,17.858a1.594,1.594,0,0,0-1.726-1.181H.051L0,16.966c4.779,1.159,7.941,3.952,9.253,7.311Z" transform="translate(0 -16.677)" fill="#fff"/></g></g><g transform="translate(23.473 16.554)"><path d="M31.07,19.59a7.312,7.312,0,0,1,2.964.556l.358.168.536-3.15a10.223,10.223,0,0,0-3.548-.61c-3.914,0-6.672,1.971-6.694,4.8-.025,2.087,1.965,3.253,3.469,3.948,1.543.713,2.061,1.166,2.054,1.8-.012.973-1.231,1.419-2.368,1.419a8.314,8.314,0,0,1-3.729-.761l-.51-.232-.557,3.253a12.544,12.544,0,0,0,4.413.774c4.163,0,6.869-1.948,6.9-4.966.017-1.651-1.039-2.911-3.328-3.945-1.385-.674-2.233-1.123-2.225-1.8C28.8,20.235,29.52,19.59,31.07,19.59Z" transform="translate(-23.043 -16.554)" fill="#fff"/></g><g transform="translate(34.507 16.82)"><g transform="translate(0 0)"><path d="M44.89,16.815H41.83a1.971,1.971,0,0,0-2.075,1.206L33.874,31.339h4.159s.678-1.791.832-2.183l5.072.006c.118.507.483,2.177.483,2.177h3.674Zm-4.885,9.367c.326-.834,1.578-4.061,1.578-4.061-.021.04.323-.84.528-1.387l.267,1.253.918,4.2Z" transform="translate(-33.874 -16.815)" fill="#fff"/></g></g></g></g></svg>